<?xml version="1.0" encoding="utf-8"?>
<!-- generated at drububu.com  -->
<!DOCTYPE svg PUBLIC "-//W3C//DTD SVG 1.1//EN" "http://www.w3.org/Graphics/SVG/1.1/DTD/svg11.dtd">
<svg version="1.1" preserveAspectRatio="xMinYMin meet" xmlns="http://www.w3.org/2000/svg" xmlns:xlink="http://www.w3.org/1999/xlink" x="0px" y="0px" width="16px" height="16px" viewBox="0 0 16 16">
<path d="M0 0h2v1h-1v1h-1z" fill="rgb(53,43,49)"/>
<path d="M2 0h4v2h-3v1h-1v3h-2v-4h1v-1h1z" fill="rgb(75,109,133)"/>
<path d="M6 0h3v2h3v1h1v3h2v-4h-1v-1h-1v-1h3v16h-16v-3h1v1h1v1h4v-2h-3v-1h-1v-3
	h-2v-3h2v-3h1v-1h3z" fill="rgb(53,43,49)"/>
<path d="M9 0h4v1h1v1h1v4h-2v-3h-1v-1h-3z" fill="rgb(75,109,133)"/>
<path d="M5 3h1v1h1v7h-1v1h-1v-1h-1v-1h-1v-5h1v-1h1z" fill="rgb(75,109,133)"/>
<path d="M9 3h1v1h1v1h1v5h-1v1h-1v1h-1v-1h-1v-7h1z" fill="rgb(75,109,133)"/>
<path d="M0 9h2v3h1v1h3v2h-4v-1h-1v-1h-1z" fill="rgb(75,109,133)"/>
<path d="M13 9h2v4h-1v1h-1v1h-4v-2h3v-1h1z" fill="rgb(75,109,133)"/>
</svg>
