<?xml version="1.0" encoding="utf-8"?>
<!-- generated at drububu.com  -->
<!DOCTYPE svg PUBLIC "-//W3C//DTD SVG 1.1//EN" "http://www.w3.org/Graphics/SVG/1.1/DTD/svg11.dtd">
<svg version="1.1" preserveAspectRatio="xMinYMin meet" xmlns="http://www.w3.org/2000/svg" xmlns:xlink="http://www.w3.org/1999/xlink" x="0px" y="0px" width="16px" height="16px" viewBox="0 0 16 16">
<path d="M0 0h2v1h-1v1h-1z" fill="rgb(53,43,49)"/>
<path d="M2 0h11v1h1v1h1v11h-1v1h-2v1h-9v-1h-2v-1h-1v-11h1v-1h1z" fill="rgb(75,109,133)"/>
<path d="M13 0h3v16h-16v-3h1v1h2v1h9v-1h2v-1h1v-11h-1v-1h-1z" fill="rgb(53,43,49)"/>
<path d="M3 2h9v1h1v9h-1v1h-9v-1h-1v-9h1z" fill="rgb(53,43,49)"/>
<path d="M4 3h2v1h1v2h-1v1h-2v-1h-1v-2h1z" fill="rgb(75,109,133)"/>
<path d="M9 3h2v1h1v2h-1v1h-2v-1h-1v-2h1z" fill="rgb(75,109,133)"/>
<path d="M4 8h2v1h1v2h-1v1h-2v-1h-1v-2h1z" fill="rgb(75,109,133)"/>
<path d="M9 8h2v1h1v2h-1v1h-2v-1h-1v-2h1z" fill="rgb(75,109,133)"/>
</svg>
