<?xml version="1.0" encoding="utf-8"?>
<!-- generated at drububu.com  -->
<!DOCTYPE svg PUBLIC "-//W3C//DTD SVG 1.1//EN" "http://www.w3.org/Graphics/SVG/1.1/DTD/svg11.dtd">
<svg version="1.1" preserveAspectRatio="xMinYMin meet" xmlns="http://www.w3.org/2000/svg" xmlns:xlink="http://www.w3.org/1999/xlink" x="0px" y="0px" width="16px" height="16px" viewBox="0 0 16 16">
<path d="M0 0h1v1h-1z" fill="rgb(53,43,49)"/>
<path d="M1 0h13v1h1v13h-1v-2h-2v-1h-1v-1h-2v-1h-1v-1h-2v-1h-1v-1h-2v-1h-1v-1
	h-1v10h-1v-13h1z" fill="rgb(75,109,133)"/>
<path d="M14 0h2v16h-16v-2h1v1h3v-1h-3v-10h1v1h1v1h2v1h1v1h2v1h1v1h2v1h1v1h2v2
	h-4v1h4v-1h1v-13h-1z" fill="rgb(53,43,49)"/>
<path d="M1 14h3v1h-3z" fill="rgb(75,109,133)"/>
<path d="M5 14h1v1h-1z" fill="rgb(75,109,133)"/>
<path d="M7 14h1v1h-1z" fill="rgb(75,109,133)"/>
<path d="M10 14h4v1h-4z" fill="rgb(75,109,133)"/>
</svg>
